/* XPM */
static char *_0a359ce9b744db0fb077f43a5f9c41bVTApPWykuUqWiRTp[] = {
/* columns rows colors chars-per-pixel */
"32 32 133 2 ",
"   c #0E0A1F",
".  c #12051F",
"X  c #150324",
"o  c #1A0425",
"O  c #130D22",
"+  c #2C0D2D",
"@  c #211426",
"#  c #291427",
"$  c #251927",
"%  c #271428",
"&  c #2C122B",
"*  c #2E1D2B",
"=  c #35112B",
"-  c #39142E",
";  c #311A2A",
":  c #391E2D",
">  c #3E1B34",
",  c #242226",
"<  c #27252A",
"1  c #2E2D28",
"2  c #3C202F",
"3  c #3B2031",
"4  c #3B2A30",
"5  c #421333",
"6  c #4A1835",
"7  c #491539",
"8  c #45362F",
"9  c #422233",
"0  c #4A2036",
"q  c #4E2837",
"w  c #4F2A3A",
"e  c #562E37",
"r  c #52273B",
"t  c #542C3C",
"y  c #5B2F3D",
"u  c #5C313E",
"i  c #622E3E",
"p  c #65333F",
"a  c #4C4D2E",
"s  c #464A31",
"d  c #4C5431",
"f  c #4D5830",
"g  c #545335",
"h  c #545B32",
"j  c #5F5B35",
"k  c #595538",
"l  c #676E3A",
"z  c #67733A",
"x  c #717A3B",
"c  c #5F3040",
"v  c #622B40",
"b  c #6C2F44",
"n  c #643142",
"m  c #6F3647",
"M  c #6D3B44",
"N  c #793745",
"B  c #733947",
"V  c #7D3E49",
"C  c #7C404A",
"Z  c #7F6446",
"A  c #7A7940",
"S  c #823549",
"D  c #81384B",
"F  c #8D3C4F",
"G  c #913E51",
"H  c #88404D",
"J  c #93454E",
"K  c #924650",
"L  c #9D4555",
"P  c #954851",
"I  c #9E4A54",
"U  c #9F5056",
"Y  c #A44C56",
"T  c #A74D59",
"R  c #A75257",
"E  c #AA5356",
"W  c #AE5857",
"Q  c #A75059",
"!  c #AC515A",
"~  c #B4545B",
"^  c #B5585C",
"/  c #BD5C5D",
"(  c #C55E5F",
")  c #C5615F",
"_  c #CC625F",
"`  c #C05E60",
"'  c #CC6462",
"]  c #D46764",
"[  c #D66963",
"{  c #DB6B63",
"}  c #E07265",
"|  c #76883C",
" . c #78883F",
".. c #8D8145",
"X. c #858D42",
"o. c #8B9541",
"O. c #8D9A43",
"+. c #A2AF46",
"@. c #A0B147",
"#. c #A5B549",
"$. c #ABBD4B",
"%. c #B1B64F",
"&. c #B0B453",
"*. c #B2C64B",
"=. c #BECE51",
"-. c #BDD050",
";. c #C3D54F",
":. c #C5D553",
">. c #C9D555",
",. c #C6D953",
"<. c #CBDD54",
"1. c #C6D659",
"2. c #C9D75C",
"3. c #C7D859",
"4. c #C9D85E",
"5. c #CEE356",
"6. c #D2E155",
"7. c #D2E555",
"8. c #D0E354",
"9. c #D2EA54",
"0. c #D2E558",
"q. c #D3E658",
"w. c #D9ED5A",
"e. c #E8FC5C",
"r. c #C9D660",
"t. c #C8D760",
"y. c #CAD761",
"u. c #CAD761",
"i. c #C6D860",
"p. c #CBDA65",
"a. c #CAD964",
"s. c #CADB69",
"d. c #CCDA69",
/* pixels */
"s.p.2.2.2.2.t.2.2.2.t.2.2.2.2.2.3.2.3.2.2.2.2.2.t.2.3.4.4.4.p.s.",
"1.1.:.1.3.3.3.3.,.3.3.3.,.3.1.1.2.1.1.1.3.,.3.3.3.3.1.1.>.>.1.1.",
":.:.:.;.:.;.:.;.;.;.-.;.:.1.;.;.:.;.;.;.;.;.:.;.:.;.:.:.:.:.:.:.",
"3.1.:.:.:.:.:.:.,.;.,.:.,.<.<.5.<.<.<.<.:.:.;.:.:.;.:.:.:.:.:.4.",
"2.3.:.;.:.:.:.;.-.,.5.;.:.-.:.:.;.:.;.;.:.,.,.:.:.:.;.:.:.:.:.i.",
"2.>.:.:.;.:.;.:.-.,.9.:...k d f f d k ..>.9.,.:.:.;.:.:.;.:.1.4.",
"t.3.:.;.:.:.;.,.5.$.o.A M 7 = - - = 7 B x o.&.8.,.;.:.:.:.;.1.2.",
"3.1.;.:.:.:.,.,.*.K > 3 J ~ ! Q Q Q ~ P 5 > Z $.,.,.;.:.:.:.1.3.",
"4.>.:.:.;.:.5.$.s i F G ) [ [ [ ] [ { ( G F i s $.8.:.-.:.:.>.2.",
"2.1.:.:.;.<.%.Z v L ] ] / ^ ~ ^ ^ ~ ^ / ' ] L i K %.5.;.,.;.,.2.",
"2.:.:.:.,.5.X.0 K ] [ / T E ^ ^ ^ ^ E Y ( [ ] G 8 X.5.;.:.:.1.2.",
"a.1.;.:.:.8. .# F [ _ R I / ' ' ' ' / I R ' [ F $ | 5.:.:.:.3.t.",
"2.>.;.:.,.5. .@ N ' { ) Q T W ! ~ ! Q Q ) { ] D @ | 8.,.:.;.1.2.",
"2.>.-.:.;.8.X.O - P ) ( ) ) / ) / / ) ) ( ` P - O X.8.,.:.:.1.3.",
"4.3.,.:.,.w.O.  X r i N ( [ ] _ ' ] { / N p q X   o.w.,.;.:.>.2.",
"4.>.:.,.<.-.z $ r 3   ; F K H H H H P H ;   2 r $ z -.,.,.:.1.4.",
"4.:.:.<.1.l < n J M 9 w c 9 @ % # @ > u t 9 B J y ; z :.,.:.:.2.",
"4.2.<.*.l e S ! ! I C u t i w * * w i y u V I ! W D e l *.<.1.t.",
"2.>.7.@., 6 ^ ' ~ I C y u U ! B B W U u u V I ~ _ ^ 6 , @.q.3.3.",
"2.>.7.#., + V U I n 6 3 y E _ Q Q _ E y 3 > n I Y C + < #.7.>.u.",
"2.1.5.#.1 + c n n 2 O @ t K ` ] [ ` J w @   2 p n y + 1 #.0.1.4.",
"t.1.,.-.O.8 X X o j O.x 4 b ` } } ` m 4 x O.j o X o 8 O.;.>.1.2.",
"3.1.:.5.5.X.a d h +.e.$., 5 E ' ' Q 5 , $.e.@.h d d X.5.<.;.:.t.",
"u.>.:.:.:.,.-.:.:.:.5.*.s & b I I b & s $.q.>.:.:.:.:.:.:.1.,.t.",
"4.>.:.:.;.>.5.<.<.,.,.,.$.a & i c & a $.:.1.,.<.<.<.>.:.:.:.1.3.",
"2.>.:.;.:.:.:.:.:.;.:.>.7.#.g X X g #.7.>.:.;.:.:.:.;.:.;.:.>.4.",
"t.,.:.:.:.:.:.:.:.:.;.:.:.q.#.d d #.7.:.:.,.:.:.:.:.:.:.:.:.2.2.",
"2.3.:.:.:.;.:.;.;.:.:.:.:.:.1.;.:.:.:.,.;.:.:.;.:.:.:.;.;.:.,.2.",
"3.1.:.:.:.;.:.:.:.:.:.;.:.:.,.8.<.:.:.:.;.:.:.:.;.:.:.:.:.:.:.1.",
":.:.;.;.:.:.:.;.>.;.:.:.;.:.:.;.:.:.;.;.:.:.;.:.:.:.:.:.:.:.:.:.",
"2.:.1.1.3.,.:.1.1.>.1.1.1.1.3.>.>.1.>.1.1.1.1.:.:.3.:.3.1.:.1.4.",
"s.p.4.1.4.4.4.4.i.2.2.2.2.2.2.a.t.t.2.2.2.4.4.4.4.4.4.4.2.2.p.s."
};
