/* XPM */
static char *_86b92ace14443a2bea8f1a63cca659b1tbhqerEzJ7nzJsu[] = {
/* columns rows colors chars-per-pixel */
"32 32 203 2 ",
"   c #4B3706",
".  c #533D05",
"X  c #533E0A",
"o  c #5A3D01",
"O  c #594203",
"+  c #55420A",
"@  c #5A440D",
"#  c #594509",
"$  c #5A4611",
"%  c #5F4C11",
"&  c #60470E",
"*  c #644D0E",
"=  c #654C05",
"-  c #785A0E",
";  c #634C11",
":  c #684E13",
">  c #655213",
",  c #6B5314",
"<  c #6E5916",
"1  c #6B5518",
"2  c #6D5A19",
"3  c #715515",
"4  c #725A15",
"5  c #795E10",
"6  c #755C1A",
"7  c #7A5E1C",
"8  c #74621C",
"9  c #7C631D",
"0  c #7E681F",
"q  c #674F21",
"w  c #775C25",
"e  c #7C6521",
"r  c #78693B",
"t  c #6E7156",
"y  c #7A7352",
"u  c #797359",
"i  c #757E6B",
"p  c #815D11",
"a  c #83651E",
"s  c #84681F",
"d  c #856416",
"f  c #826521",
"g  c #886723",
"h  c #856B22",
"j  c #8B6C26",
"k  c #876C28",
"l  c #8D6D2A",
"z  c #916D25",
"x  c #8C7426",
"c  c #8E722A",
"v  c #877D26",
"b  c #94732B",
"n  c #957A2C",
"m  c #9B7729",
"M  c #886D30",
"N  c #8E783E",
"B  c #9D7C33",
"V  c #A47E35",
"C  c #887643",
"Z  c #977F43",
"A  c #7C8876",
"S  c #928B2E",
"D  c #90872C",
"F  c #968D32",
"G  c #9C8734",
"H  c #9A9133",
"J  c #87812B",
"K  c #A38235",
"L  c #A5843A",
"P  c #AC8B3E",
"I  c #A68A3D",
"U  c #A59739",
"Y  c #ACAF3E",
"T  c #AAB13E",
"R  c #978149",
"E  c #8C845D",
"W  c #83815B",
"Q  c #918658",
"!  c #AB8C43",
"~  c #B28A45",
"^  c #ACAF41",
"/  c #AFA745",
"(  c #ADB242",
")  c #B2B544",
"_  c #8D8664",
"`  c #868C79",
"'  c #949171",
"]  c #BCC64B",
"[  c #BDC94D",
"{  c #C1CB4E",
"}  c #C3D44F",
"|  c #C2CC51",
" . c #C4D552",
".. c #C8D553",
"X. c #C5D852",
"o. c #C8D854",
"O. c #018EB5",
"+. c #008DB8",
"@. c #0091B8",
"#. c #1895B8",
"$. c #2B96B8",
"%. c #7BA1AA",
"&. c #019BC2",
"*. c #019CCB",
"=. c #0297C7",
"-. c #009ED6",
";. c #009FDA",
":. c #0C9EDD",
">. c #169CC1",
",. c #2C96C0",
"<. c #01A2C6",
"1. c #01A4CB",
"2. c #00A8CF",
"3. c #00A4D6",
"4. c #02ADD1",
"5. c #02A3DC",
"6. c #01ABDC",
"7. c #08A0DF",
"8. c #1DA9DF",
"9. c #12A7DE",
"0. c #00B2D6",
"q. c #01B3DD",
"w. c #00B8DE",
"e. c #25A8C9",
"r. c #24B1DF",
"t. c #2EA9D8",
"y. c #01A4E0",
"u. c #0DA6E1",
"i. c #00ADE1",
"p. c #0BADE2",
"a. c #16ADE3",
"s. c #1BACE2",
"d. c #17A6E1",
"f. c #01B4E2",
"g. c #01BBE3",
"h. c #0DB6E4",
"j. c #17B3E4",
"k. c #15BBE4",
"l. c #1DB5E6",
"z. c #21ADE2",
"x. c #39ACE5",
"c. c #23B1E3",
"v. c #29BAE8",
"b. c #26B8E4",
"n. c #3AB2E6",
"m. c #3ABFE6",
"M. c #36BAEA",
"N. c #5AA6C3",
"B. c #57B3CC",
"V. c #5DB2C6",
"C. c #54BAD7",
"Z. c #65AEC8",
"A. c #6BAEC8",
"S. c #6BB2CE",
"D. c #68BEDF",
"F. c #74B6D4",
"G. c #7BB9D3",
"H. c #7BBDDB",
"J. c #4BBEE3",
"K. c #49BFED",
"L. c #57B7E4",
"P. c #66BDE8",
"I. c #74BEE5",
"U. c #00C2E2",
"Y. c #37C5E6",
"T. c #74C2DB",
"R. c #5DC5EA",
"E. c #5BCBF1",
"W. c #61CBEA",
"Q. c #67C0EA",
"!. c #77C3E8",
"~. c #72D0EA",
"^. c #6BC8F2",
"/. c #72C6F5",
"(. c #7BD5FB",
"). c #79D8F9",
"_. c #829A97",
"`. c #8F9985",
"'. c #85A09B",
"]. c #9AAC9D",
"[. c #9CA58A",
"{. c #86A7A4",
"}. c #8BA5A3",
"|. c #8DAAAA",
" X c #87B1AD",
".X c #87AEB3",
"XX c #85B2B9",
"oX c #94B3B3",
"OX c #98B6B8",
"+X c #8CB5C5",
"@X c #94BDC9",
"#X c #94BFD0",
"$X c #A0BDC3",
"%X c #8DC1CC",
"&X c #86C1D1",
"*X c #97C6D6",
"=X c #8ACDF4",
"-X c #8CD4FB",
";X c #89DEFF",
":X c #87D8F8",
">X c #93DCFD",
",X c #93D5F7",
"<X c #8DE1FD",
/* pixels */
" . . . . .}  . .X.X. . .] ^ T ^ ^ T T ]  . . . . . . . . . . . .",
" . . . . . . . .X.[ ( H e n n h 8 h n U ) ) [ X. . . . . . . . .",
" . . . . .o.] ^ U ! c e 7 b z 7 > 6 l G ! B H ( [  . . .}  . .} ",
" . . . . .| S n B b j 7 f n V l 3 7 l L B b f e H ) ] o.}  . . .",
" . . .X.| S 6 l b g h 4 h m L b , 9 c L B h 4 3 f x U [  . . . .",
" . .X.| J ; 3 j g e f 4 k L L x , , s L B f 2 , 9 j c H ]  . . .",
" . .] S +   4 h a a 9 9 f B L b , ; 7 m n a 1 ; 9 n 7 9 ) .. . .",
" .X.( 6 @ X ; f e 9 7 - d B P x 6 4 5 s j 3 @ ; 7 f 1 6 F [  ...",
"X.[ U 9 , ; ; f c h p r A [.[.` ` A A Z z 4 . + 1 3 7 f f (  .o.",
" .( B B f : % 6 m Z ` '.G.G.V.Z.Z.G.G.].' r O @ 1 6 b n f F [  .",
"{ U K ! B 7 @ 3 R }.H.H.A.N.#.#.$.N.Z.S.H._.A r 5 l L I f e (  .",
"] c 7 c G b 3 M {.T.H.B.>.O.O.+.+.+.>.,.N.H.!.{.R V L V f 8 U  .",
"^ 9 X @ 3 f s _.!.D.t.<.@.<.=.*.*.<.<.&.*.e.B.!.].m s f 7 7 B | ",
"( k , $ + & C oX!.t.=.*.3.0.4.0.0.4.3.1.1.*.*.L.OXC , 6 l L I ) ",
"T h 9 f , 6 }.-XT.r.3.5.6.6.0.0.q.9.3.-.3.3.2.J.=X}.b z n K ! T ",
"^ h j n h N OXW.t.6.;.3.4.6.5.0.5.8.7.;.8.w.U.b./.OXN b b b n ^ ",
"( h g K ~ OX=XL.6.g.6.6.5.5.7.i.6.5.s.c.s.a.k.g.L.>X}.d n s x Y ",
"Y k e b ~ $XP.x.i.g.a.s.s.7.5.6.w.g.y.c.l.z.v.g.Y.;X X= 6 8 8 Y ",
"T 9 ; 3 l OXE.g.g.d.9.u.d.a.g.f.w.6.6.s.s.l.U.g.M.). XO > : 6 T ",
"] 8 ; : w oX(.v.g.0.6.5.y.w.i.y.5.5.6.g.k.b.v.c.Q.;X%.O , > 0 ^ ",
"[ 8 X + *  X;XE.f.f.p.f.f.y.y.:.:.:.p.j.g.U.j.n./.@XC * 6 9 G [ ",
" .F >   . t %X~.n.u.d.a.f.f.w.i.:.s.c.p.6.i.j.R.;X.X2 2 z B !  .",
"X.( e 1 % : |.<XW.h.u.z.c.i.f.g.i.i.f.6.6.6.J.:X#XZ 7 j L P ( } ",
" .[ G x 9 7 _ *X;XW.m.b.h.p.5.y.w.0.f.6.r.L.).*X_ a c m K I [ X.",
"X.X.( x h f p _ *X<X~.R.v.k.g.0.6.8.J.Q.!.:X*X_ a a l h l / ..X.",
"X. .[ H h a a p W &X-X=XR.E.v.R.J.L.I.=X>X+Xy : , 6 1 6 F [ }  .",
" . . .[ H 6 , & O u oX%X-X).).:X-X<X>X*XOXy O . X @ , D [  . . .",
" . . .X.[ S 2 +   ; f _ %.+X+X+XXXXXXXQ l 6 * @ $ 2 D | X. . .X.",
" . .}  .X.[ ) J 1 8 7 , + # M c M q & 3 8 : 3 8 D ) [  . . . .[ ",
" . . . . . .X.[ ) H x 0 + X 6 9 7 +   , 8 9 F ) { .. . .X. .X.X.",
" . . . . . .X. . .o.| ( S > 2 h h 8 > F ) [  .X. . . . . . .X. .",
" . . . . . . . . .X. . . .[ T ^ ^ ^ ] }  .X.X. . . . . . . .X. ."
};
