/* XPM */
static char *_8dbf86692cf401fde1ac786ff07b918V8XaJdF5FimmhZDq[] = {
/* columns rows colors chars-per-pixel */
"32 32 161 2 ",
"   c #020101",
".  c #0B0200",
"X  c #020C00",
"o  c #0A0D01",
"O  c #150301",
"+  c #1D0101",
"@  c #151204",
"#  c #191203",
"$  c #1C1B07",
"%  c #191C09",
"&  c #260503",
"*  c #240C03",
"=  c #290F02",
"-  c #330B02",
";  c #2C1105",
":  c #2D120B",
">  c #361A04",
",  c #1C2205",
"<  c #142306",
"1  c #242B09",
"2  c #292F0D",
"3  c #2E390F",
"4  c #333A0E",
"5  c #2E3D11",
"6  c #303610",
"7  c #333D13",
"8  c #383F13",
"9  c #421704",
"0  c #461C06",
"q  c #4E1907",
"w  c #43160A",
"e  c #401D0A",
"r  c #491E0C",
"t  c #461B14",
"y  c #47210C",
"u  c #4C230B",
"i  c #522205",
"p  c #54250C",
"a  c #572B0E",
"s  c #5C260D",
"d  c #5F2E10",
"f  c #5D2E1E",
"g  c #652E0F",
"h  c #70340F",
"j  c #652D13",
"k  c #682B16",
"l  c #652E19",
"z  c #6B3614",
"x  c #61321E",
"c  c #733515",
"v  c #703912",
"b  c #7F3A19",
"n  c #5F3020",
"m  c #2B430F",
"M  c #374011",
"N  c #3C4216",
"B  c #434919",
"V  c #49531C",
"C  c #4F591C",
"Z  c #59691E",
"A  c #455A21",
"S  c #565F20",
"D  c #784729",
"F  c #526722",
"G  c #5A6124",
"H  c #576823",
"J  c #5D6B26",
"K  c #5A6E29",
"L  c #606B26",
"P  c #626B28",
"I  c #637627",
"U  c #6B7627",
"Y  c #677528",
"T  c #667B2E",
"R  c #6E792B",
"E  c #823D19",
"W  c #8C491E",
"Q  c #8B461D",
"!  c #944D1F",
"~  c #834C2D",
"^  c #974C22",
"/  c #9B5225",
"(  c #975C34",
")  c #9D5D35",
"_  c #A05627",
"`  c #A65A26",
"'  c #9D6139",
"]  c #B5642D",
"[  c #AF6534",
"{  c #A9663B",
"}  c #B36735",
"|  c #BA6230",
" . c #BA6A37",
".. c #C1682E",
"X. c #C86A2D",
"o. c #CA6730",
"O. c #C36A30",
"+. c #CB6A31",
"@. c #D26B30",
"#. c #C7703A",
"$. c #D77536",
"%. c #DD7735",
"&. c #D3763B",
"*. c #D6783B",
"=. c #DC7A3A",
"-. c #E47C3A",
";. c #EB7E3B",
":. c #DB7E41",
">. c #6E802C",
",. c #738030",
"<. c #7B8431",
"1. c #7D9736",
"2. c #879536",
"3. c #89933A",
"4. c #879B38",
"5. c #8B9D3A",
"6. c #8DA13E",
"7. c #92A23B",
"8. c #E6813D",
"9. c #EE823C",
"0. c #F3843D",
"q. c #F8863F",
"w. c #FB8A3E",
"e. c #94A940",
"r. c #99AC41",
"t. c #A5B343",
"y. c #A7B846",
"u. c #ACBE4A",
"i. c #B1BD48",
"p. c #E78440",
"a. c #EB8242",
"s. c #F48540",
"d. c #FD8B43",
"f. c #FF9244",
"g. c #AEC046",
"h. c #AEC04A",
"j. c #B2C549",
"k. c #B9C74E",
"l. c #BBCD4C",
"z. c #BBCB51",
"x. c #C3D44F",
"c. c #C4D552",
"v. c #C8D554",
"b. c #C5D953",
"n. c #CADB55",
"m. c #C6D559",
"M. c #C9D75D",
"N. c #C6D95C",
"B. c #CAD95D",
"V. c #CEE156",
"C. c #CEE058",
"Z. c #D2E356",
"A. c #D3E559",
"S. c #D4E659",
"D. c #D2E45A",
"F. c #D7E95C",
"G. c #DCEE5C",
"H. c #DBF15C",
"J. c #CAD861",
"K. c #CCDB66",
"L. c #E4F760",
/* pixels */
"M.M.M.J.M.M.M.J.J.M.M.M.M.J.M.M.M.M.M.M.M.M.M.M.B.M.M.M.M.M.B.K.",
"v.v.c.c.c.c.c.c.c.x.c.v.c.b.v.c.c.v.c.v.c.c.v.c.v.b.v.c.v.b.c.m.",
"c.c.c.c.c.c.c.c.c.c.c.c.c.c.x.c.b.c.x.c.c.b.b.l.b.c.x.x.c.c.c.m.",
"c.c.c.c.c.c.c.v.c.c.c.c.v.b.c.c.x.c.c.c.c.c.c.c.c.c.c.c.c.c.v.M.",
"c.b.c.c.c.c.c.x.c.c.c.c.c.c.c.v.c.x.c.c.c.c.c.c.c.c.c.c.c.c.v.B.",
"c.l.c.c.c.c.c.b.x.v.c.b.Z.C.Z.Z.v.x.c.c.c.c.c.c.c.c.c.b.c.c.c.M.",
"c.c.c.c.c.b.c.c.c.c.C.t.V V V S z.b.x.c.c.c.c.c.c.c.c.l.c.c.v.M.",
"c.c.c.c.V.S.S.A.S.S.L.5.  +     h.V.x.v.c.c.c.c.c.c.c.c.c.c.c.B.",
"c.c.b.A.3.J Z H F F K m   j l @ z.V.m.b.c.c.c.c.c.c.b.c.c.l.n.J.",
"c.v.b.4.o . : w p s j j v _ D   Y C.n.l.c.c.c.c.c.c.b.b.v.c.m.B.",
"c.n.v., O ~ ' &.f.$./ ] d.a.[ r   U C.C.c.c.c.c.x.l.b.z.b.c.c.J.",
"c.b.c.1 x ' ) &.d.` > z q.s.d.9.u   R n.S.V.A.A.Z.V.v.c.x.c.v.M.",
"c.v.b.1 f { *.q.9.s.s.q.9.9.9.q.9.u   I 7.5.5.4.6.i.V.c.c.x.c.J.",
"c.b.b.1 n p.d.d.d.d.d.d.9.s.0.9.s.9.u * * * * ;   M k.b.c.c.v.B.",
"c.b.v., t | @.+.o.X.+.-.q.0.9.9.9.0.9.9.;.0.;.q.W . B V.c.c.c.B.",
"c.v.c.M o @ # # @ # . e -.0.9.0.9.0.0.s.a.a.0.q.d.c 5 n.b.c.c.M.",
"c.c.c.k.g.h.u.h.u.l.,.  y 0.0.9.0.9.s.q. .( &.q.f.E 7 C.v.x.c.M.",
"c.c.c.n.C.n.C.b.n.D.n.T * 0.s.0.0.9.9.9.-.-.8.9.d.b m C.c.c.b.J.",
"c.c.c.c.c.l.c.c.c.c.F.1.; 0.q.9.0.9.} ) -.w.#.) :.E M D.c.v.c.B.",
"c.c.c.c.b.b.c.c.c.c.A.2.  a 9.0.0.9.=.*.8.s.=.&.s.Q   G n.x.v.M.",
"c.c.c.c.c.c.c.c.c.c.b.l.J O 0.w.0.d.w.d.d.0.0.q.q.-.k 1 Z.c.c.M.",
"c.c.l.c.c.b.c.c.c.c.c.F.r.  ^ d.s.z r w u O.f.s.d.-.s X P b.b.M.",
"b.c.b.c.c.c.c.c.c.v.b.D.7.  i ! d   A >.X & j ..-.h 0 O $ b.N.B.",
"c.c.c.c.c.c.c.c.c.c.c.V.7.. p 9   G b.H.2.I X ; h y g - 1 c.b.B.",
"c.x.c.c.x.c.x.c.c.c.c.D.7.  i q o j.V.c.C.G.7.< . g u . $ c.n.M.",
"c.c.c.x.c.c.x.c.b.c.l.A.7.  s i . y.C.c.v.c.H.H O h - o U b.b.J.",
"c.c.x.c.c.c.c.c.c.x.c.A.7.  & +   y.V.b.c.v.S.C   =   2 F.c.v.M.",
"x.c.c.c.x.c.x.c.v.c.x.V.y.4 3 5 N h.C.b.z.c.B.<.6 6 4 L n.c.b.M.",
"c.c.c.c.c.b.c.x.b.c.b.c.c.B.n.N.b.v.c.c.c.c.c.b.n.b.V.b.c.c.c.M.",
"x.c.x.c.c.x.c.c.l.c.c.c.x.b.c.b.b.c.c.c.c.c.c.c.b.c.b.c.c.c.v.J.",
"c.c.c.x.c.c.x.c.c.c.v.x.c.c.v.c.c.c.c.c.c.c.c.b.c.c.c.c.c.c.c.m.",
"c.x.c.x.c.x.c.c.c.c.c.c.c.b.c.c.c.c.c.c.c.c.c.c.c.c.c.c.c.c.c.c."
};
