/* XPM */
static char *_0ec95f9848b47e381c81eed5e194b4cBe3gzVLOYyoaBY7N[] = {
/* columns rows colors chars-per-pixel */
"32 32 180 2 ",
"   c #030101",
".  c #0A0301",
"X  c #060C02",
"o  c #0B0C02",
"O  c #130301",
"+  c #1B0101",
"@  c #170C02",
"#  c #190A03",
"$  c #001B04",
"%  c #1C1002",
"&  c #171904",
"*  c #191C05",
"=  c #270400",
"-  c #2F0100",
";  c #200C03",
":  c #360101",
">  c #320B03",
",  c #281402",
"<  c #3A1002",
"1  c #311309",
"2  c #1D2205",
"3  c #162609",
"4  c #252A0A",
"5  c #282F0D",
"6  c #242A06",
"7  c #29300E",
"8  c #30370E",
"9  c #333B0E",
"0  c #2F3710",
"q  c #2E3A12",
"w  c #343911",
"e  c #393F11",
"r  c #430403",
"t  c #4C0301",
"y  c #4E0800",
"u  c #520400",
"i  c #5B0200",
"p  c #4A1B07",
"a  c #620501",
"s  c #6A0301",
"d  c #610905",
"f  c #7C0101",
"g  c #730504",
"h  c #6C1003",
"j  c #621F05",
"k  c #4F2004",
"l  c #4A250A",
"z  c #542306",
"x  c #58270C",
"c  c #422112",
"v  c #5B301F",
"b  c #6C2008",
"n  c #642D0E",
"m  c #70340F",
"M  c #602C14",
"N  c #623110",
"B  c #5C3623",
"V  c #613421",
"C  c #3A4515",
"Z  c #394618",
"A  c #3E4B16",
"S  c #49531C",
"D  c #4B571C",
"F  c #474917",
"G  c #7C4D2A",
"H  c #4F6222",
"J  c #5C6322",
"K  c #5D6A23",
"L  c #556924",
"P  c #5C782B",
"I  c #626D26",
"U  c #676C29",
"Y  c #7C6320",
"T  c #6A7426",
"R  c #6A752A",
"E  c #6E7B2B",
"W  c #717A2B",
"Q  c #7B7A28",
"!  c #840101",
"~  c #8E0201",
"^  c #9D0301",
"/  c #9F0F04",
"(  c #A10601",
")  c #AC0B01",
"_  c #BC0300",
"`  c #BE0B04",
"'  c #B41108",
"]  c #A51908",
"[  c #80240B",
"{  c #93230B",
"}  c #9B361A",
"|  c #AC361C",
" . c #BA3A1F",
".. c #B92517",
"X. c #C20203",
"o. c #C80501",
"O. c #CC0D05",
"+. c #DD0B05",
"@. c #D40A04",
"#. c #CF1509",
"$. c #CF180A",
"%. c #CA1206",
"&. c #D51206",
"*. c #DC1306",
"=. c #D41608",
"-. c #D91E0F",
";. c #D9140B",
":. c #E50502",
">. c #EC0602",
",. c #E40C04",
"<. c #EB0C04",
"1. c #F20404",
"2. c #F80602",
"3. c #F30B05",
"4. c #FB0B04",
"5. c #F80F0A",
"6. c #E41306",
"7. c #EC1306",
"8. c #E51807",
"9. c #EC1A06",
"0. c #EC150A",
"q. c #E21C0B",
"w. c #EA1A0B",
"e. c #F01207",
"r. c #FE1307",
"t. c #F2150A",
"y. c #FE1508",
"u. c #F31B0C",
"i. c #CF2D18",
"p. c #D62412",
"a. c #E82F1A",
"s. c #E53A20",
"d. c #B3552F",
"f. c #A54E30",
"g. c #9F6A3E",
"h. c #A0653B",
"j. c #D14021",
"k. c #728031",
"l. c #7B8431",
"z. c #7E9336",
"x. c #899237",
"c. c #869A37",
"v. c #869739",
"b. c #8C9739",
"n. c #8C9E3A",
"m. c #A48A35",
"M. c #8BA13B",
"N. c #91A23B",
"B. c #96AC3F",
"V. c #9CA93F",
"C. c #A4B345",
"Z. c #A7BB46",
"A. c #AFBE47",
"S. c #B0BF4A",
"D. c #AFC147",
"F. c #AAC24B",
"G. c #B4C54B",
"H. c #B5C84A",
"J. c #B8C84C",
"K. c #BACA50",
"L. c #BED452",
"P. c #C3D54E",
"I. c #C4D552",
"U. c #C9D554",
"Y. c #C5D953",
"T. c #CBDC55",
"R. c #C6D559",
"E. c #C9D75D",
"W. c #C7D95F",
"Q. c #CAD95D",
"!. c #CDE155",
"~. c #CEE259",
"^. c #D2E459",
"/. c #D6E85B",
"(. c #D7E959",
"). c #DDF35F",
"_. c #D2F05C",
"`. c #CAD761",
"'. c #C7D961",
"]. c #CBDA64",
/* pixels */
"E.E.W.E.E.`.Q.`.Q.Q.Q.W.Q.'.E.E.Q.E.Q.E.W.E.`.E.E.`.W.E.E.W.Q.].",
"U.U.I.U.I.I.I.I.I.P.U.U.I.I.I.U.I.I.U.I.I.I.I.I.U.I.U.I.U.I.U.R.",
"I.I.L.P.I.I.I.I.I.L.L.P.I.I.I.I.P.I.I.I.I.I.I.I.I.I.I.P.I.P.I.R.",
"I.I.I.I.I.U.I.I.I.U.Y.I.I.I.I.I.I.U.I.I.I.I.I.I.I.I.I.I.I.I.I.W.",
"I.I.I.I.I.P.I.P.I.I.I.I.I.I.I.I.Y.P.I.I.I.L.I.I.P.I.P.I.I.I.U.E.",
"P.L.I.I.I.I.I.I.I.I.I.Y.^.!.~.!.U.P.I.I.I.Y.I.I.I.I.I.P.I.I.I.E.",
"I.I.I.I.I.I.I.I.Y.I.T.C.S S S J K.Y.U.I.I.I.I.I.I.I.I.L.I.I.U.E.",
"I.I.I.I.!././.^.~.^.).n.  + .   D.T.I.I.I.I.I.I.I.I.I.I.I.I.U.Q.",
"U.L.I.(.x.I K I U T Q F   N M & H.T.I.I.I.U.U.L.I.I.I.I.L.I.U.`.",
"I.I.Y.c.X . 1 y a s f s h } G X R I.T.L.Y.L.Y.I.I.P.I.I.I.I.I.W.",
"I.U.Y.2 O G g.j.y.o.~ ' u.a.| y . E L.Y.U.I.U.I.I.I.U.I.P.I.I.W.",
"U.Y.I.4 V h.f.p.4.) : f 0.9.0.=.a o E L.!.!.~.~.^.T.I.I.I.I.U.Q.",
"P.Y.U.6 v d.-.1.<.e.<.<.w.7.<.7.$.a O W V.N.M.M.M.A.!.I.I.I.Y.Q.",
"I.Y.I.6 B s.4.4.5.3.1.3.7.<.e.9.6.O.g u i : - : . C J.Y.I.I.U.Q.",
"I.Y.Y.2 c ..o.X.X.X._ =.6.<.0.0.0.<.+.;.+.6.q.u./   F T.I.I.I.W.",
"I.Y.U.C o % @ % ; , ; u %.6.9.w.9.0.7.w.w.w.<.1.r.f C !.I.I.I.Q.",
"I.U.I.J.G.F.Z.F.F.F.k.O s &.0.0.7.7.e.0.i. .p.3.r.! C ^.I.I.I.Q.",
"I.I.U.Y.T.T.~.T.T.!.L.W y =.<.>.<.<.<.<.8.q.w.e.y.f C T.P.I.U.E.",
"I.I.P.I.I.I.I.I.I.U.^.v.r &.,.>.>.>.:.:.<.>.,.*.5.! C ^.I.P.I.Q.",
"I.I.I.I.I.I.I.L.L.I.^.v.O ! ,.1.>.>.<.:.<.3.0.,.2.^ o J Y.I.U.E.",
"I.P.I.I.I.I.I.U.I.U.Y.K.R t *.>.>.<.t.9.t.u.<.<.>.>.s 5 ^.Y.U.Q.",
"I.I.P.I.I.I.I.I.I.P.L./.B.+ ] u.u.^ ! ~ ^ *.r.1.1.8.s X I Y.U.Q.",
"P.I.I.I.I.I.I.I.I.I.I.^.M.. j { d O Y m.< : i ` q.[ z O * U.Y.Q.",
"I.I.I.I.I.I.I.I.P.I.I.^.M.. k l   H L._.v.P $ - b x N > 4 Y.Y.Q.",
"I.I.I.P.I.P.I.I.I.I.I.~.N.. x p . G.^.I.~.(.N.3 . n l O * Y.Y.E.",
"I.P.I.I.I.I.P.I.I.I.I.^.N.  x z X Z.T.I.Y.I.).L O m > X R Y.Y.Q.",
"I.P.I.P.I.I.I.I.I.I.I.^.n.  = +   Z.^.I.U.R./.D   >   5 /.I.U.`.",
"I.I.I.I.P.I.P.I.U.I.I.!.C.9 0 0 C S.Y.I.I.I.~.l.w 0 0 K Y.Y.U.Q.",
"I.I.I.I.I.P.I.I.I.P.I.I.Y.T.T.Y.T.I.I.P.I.I.I.Y.!.T.T.T.I.I.I.Q.",
"P.I.P.I.I.I.P.I.I.I.I.I.I.U.Y.I.I.U.I.I.I.I.I.Y.I.I.I.U.U.I.I.`.",
"I.I.I.P.I.I.I.I.I.I.U.P.U.I.I.I.I.I.U.I.I.I.P.I.L.I.I.L.I.I.U.Y.",
"I.I.I.I.P.I.P.I.I.I.I.L.I.I.L.I.I.I.I.I.I.I.I.I.I.Y.U.L.I.U.I.I."
};
